<?xml version="1.0" encoding="UTF-8" standalone="no"?>
<!-- Created with Inkscape (http://www.inkscape.org/) -->

<svg
   xmlns:dc="http://purl.org/dc/elements/1.1/"
   xmlns:cc="http://creativecommons.org/ns#"
   xmlns:rdf="http://www.w3.org/1999/02/22-rdf-syntax-ns#"
   xmlns:svg="http://www.w3.org/2000/svg"
   xmlns="http://www.w3.org/2000/svg"
   xmlns:sodipodi="http://sodipodi.sourceforge.net/DTD/sodipodi-0.dtd"
   xmlns:inkscape="http://www.inkscape.org/namespaces/inkscape"
   width="1920"
   height="1080"
   viewBox="0 0 507.99995 285.75001"
   version="1.1"
   id="svg8"
   inkscape:version="0.92.4 (unknown)"
   sodipodi:docname="logo.svg">
  <defs
     id="defs2" />
  <sodipodi:namedview
     id="base"
     pagecolor="#ffffff"
     bordercolor="#666666"
     borderopacity="1.0"
     inkscape:pageopacity="0.0"
     inkscape:pageshadow="2"
     inkscape:zoom="0.35"
     inkscape:cx="382.34105"
     inkscape:cy="770.8365"
     inkscape:document-units="px"
     inkscape:current-layer="layer1"
     showgrid="false"
     units="px"
     inkscape:window-width="1920"
     inkscape:window-height="1016"
     inkscape:window-x="0"
     inkscape:window-y="27"
     inkscape:window-maximized="1" />
  <metadata
     id="metadata5">
    <rdf:RDF>
      <cc:Work
         rdf:about="">
        <dc:format>image/svg+xml</dc:format>
        <dc:type
           rdf:resource="http://purl.org/dc/dcmitype/StillImage" />
        <dc:title></dc:title>
      </cc:Work>
    </rdf:RDF>
  </metadata>
  <g
     inkscape:label="Layer 1"
     inkscape:groupmode="layer"
     id="layer1"
     transform="translate(0,-11.249931)">
    <path
       style="fill:#000000;stroke-width:0.99999994"
       d="M -1.162346,158.97114 V 9.856904 H 254.96511 511.09261 V 158.97114 308.08535 H 254.96511 -1.162346 Z M 146.49148,281.48392 c 6.50846,-1.40894 4.64101,-2.8305 -2.04453,-1.55631 -6.52845,1.24429 -12.97187,-0.23723 -12.97187,-2.98286 0,-1.48023 1.82851,-2.07554 9.52859,-3.10228 9.47815,-1.26384 9.53105,-1.28921 10.00043,-4.80255 0.8192,-6.13174 -8.34002,-10.02195 -16.96124,-7.20394 -5.03771,1.64669 -5.56823,2.59859 -5.59353,10.0359 -0.0172,5.61394 0.53186,7.20883 3.02575,8.75751 3.42727,2.12834 7.94474,2.38544 15.0164,0.85453 z m -15.0164,-12.14799 c 0,-4.23741 3.07793,-6.6949 8.38515,-6.6949 4.82793,0 8.38513,2.3908 8.38513,5.63573 0,2.35775 -0.77029,2.78074 -6.77341,3.71943 -9.71652,1.51938 -9.99687,1.44481 -9.99687,-2.66026 z m 103.67539,11.76533 c 3.96561,-1.2735 7.60108,-5.80095 7.60108,-9.46605 0,-3.6651 -3.63547,-8.19257 -7.60108,-9.46604 -6.51244,-2.09139 -10.37793,-1.75283 -15.36771,1.34577 -3.87458,2.40613 -4.45645,3.46634 -4.45645,8.12027 0,4.65393 0.58187,5.71414 4.45645,8.12025 4.98978,3.09863 8.85527,3.43713 15.36771,1.3458 z m -13.72583,-2.3654 c -2.31,-1.43446 -3.04917,-3.15584 -3.04917,-7.10065 0,-3.94483 0.73917,-5.6662 3.04917,-7.1007 3.82887,-2.3777 9.28442,-2.42136 13.87887,-0.11098 2.96417,1.49055 3.54476,2.67171 3.54476,7.21171 0,4.53999 -0.58059,5.72115 -3.54476,7.21168 -4.59445,2.31036 -10.05,2.2667 -13.87887,-0.11098 z m 47.37885,1.0196 c 3.87458,-2.40611 4.45644,-3.46632 4.45644,-8.12025 0,-4.65393 -0.58186,-5.71414 -4.45644,-8.12027 -4.98973,-3.0986 -8.85521,-3.43716 -15.36765,-1.34577 -2.99143,0.96062 -4.94168,2.57246 -6.01407,4.97044 -1.95734,4.3768 -1.95742,4.61422 -0.003,8.9846 2.86476,6.40582 13.89945,8.2796 21.38465,3.63125 z m -15.20769,-0.92319 c -6.02901,-3.74397 -5.17845,-13.06835 1.3912,-15.25177 8.70938,-2.89454 15.22376,0.55217 15.22376,8.05471 0,3.94481 -0.73915,5.66619 -3.04908,7.10065 -3.84388,2.38706 -9.80903,2.42945 -13.56588,0.0962 z m 100.12705,2.21682 c 4.49994,-1.95732 4.59623,-7.02111 0.18093,-9.50384 -1.7642,-0.99198 -7.08117,-3.0817 -11.8154,-4.64384 -7.94993,-2.62318 -8.60784,-3.0935 -8.60784,-6.15391 v -3.31365 l 11.1932,0.13412 c 13.31298,0.1596 12.91641,-1.61187 -0.51572,-2.30359 -9.79126,-0.50422 -14.50493,1.25309 -14.46564,5.39294 0.0347,3.64701 1.61173,4.67267 13.12105,8.5336 9.02973,3.0291 10.5502,3.91473 10.94542,6.37523 0.71977,4.48056 -2.65934,5.58898 -13.60955,4.46435 -9.09504,-0.93408 -14.44697,0.0143 -6.35001,1.12714 2.34019,0.32097 4.94092,0.72606 5.77944,0.89976 3.98683,0.82586 11.0915,0.31917 14.14417,-1.00852 z m 29.30604,0.52705 c 0,-0.52071 -1.66617,-0.94675 -3.70253,-0.94675 -6.56267,0 -8.49403,-2.27576 -8.49403,-10.00855 v -7.03307 h 5.33598 c 2.93476,0 5.33597,-0.42602 5.33597,-0.94674 0,-0.52071 -2.40121,-0.94678 -5.33597,-0.94678 -4.91252,0 -5.33598,-0.22544 -5.33598,-2.84028 0,-1.56214 -0.68603,-2.84028 -1.52455,-2.84028 -0.83857,0 -1.5246,1.27814 -1.5246,2.84028 0,2.2091 -0.67758,2.84028 -3.04911,2.84028 -1.67707,0 -3.04915,0.42607 -3.04915,0.94678 0,0.52072 1.37208,0.94674 3.04915,0.94674 2.77972,0 3.04911,0.63117 3.04911,7.14371 0,6.32234 0.43042,7.41089 3.74216,9.46755 3.68542,2.28868 11.50355,3.22458 11.50355,1.37711 z m 28.06626,-1.86025 c 3.70034,-2.29791 4.94093,-10.85465 2.06379,-14.2346 -4.75016,-5.58031 -17.40117,-5.92705 -22.6124,-0.61971 -5.38733,5.48659 -2.54768,14.73447 5.13982,16.73924 4.58732,1.19628 11.88456,0.30345 15.40879,-1.88493 z m -16.70129,-1.41034 c -2.88631,-1.79242 -3.74217,-3.31792 -3.74217,-6.67034 0,-3.35244 0.85586,-4.87796 3.74217,-6.67033 7.72387,-4.79656 17.60181,-1.05324 17.60181,6.67033 0,7.72356 -9.87794,11.46689 -17.60181,6.67034 z m 65.56408,2.20412 c 1.15376,-0.7625 -0.37225,-0.87476 -5.59747,-0.41169 -8.10389,0.71817 -13.39802,-0.51636 -13.39802,-3.12432 0,-1.30341 2.2036,-2.01054 9.52857,-3.05757 8.73039,-1.24794 9.57041,-1.58848 10.02873,-4.06606 0.78279,-4.23183 -0.85153,-6.78882 -5.10907,-7.99347 -5.92446,-1.67629 -9.62612,-1.34938 -13.75522,1.21478 -3.26494,2.02754 -3.74211,3.17446 -3.74211,8.99423 0,5.53337 0.55086,7.01235 3.23135,8.677 2.71166,1.68394 4.35689,1.91089 10.22924,1.41104 3.84884,-0.32743 7.71167,-1.06738 8.584,-1.64394 z m -18.99549,-11.17374 c 0,-5.74533 6.11806,-8.27504 13.82137,-5.71484 2.01353,0.66917 2.94889,1.98491 2.94889,4.148 0,2.95844 -0.44772,3.23799 -6.77339,4.2271 -9.71655,1.51938 -9.99687,1.44481 -9.99687,-2.66026 z m -361.322664,-0.0676 v -12.30784 h 6.098253 c 3.35409,0 6.098322,-0.42607 6.098322,-0.94679 0,-0.56103 -5.590098,-0.94673 -13.721125,-0.94673 -8.13101,0 -13.721108,0.3857 -13.721108,0.94673 0,0.52072 2.744215,0.94679 6.098252,0.94679 h 6.098254 v 12.30784 c 0,7.57406 0.586413,12.30782 1.524602,12.30782 0.938206,0 1.52455,-4.73376 1.52455,-12.30782 z m 21.343984,4.80249 c 0,-6.9805 0.28117,-7.64255 4.01702,-9.46756 4.79716,-2.34331 8.6264,-2.49622 11.88201,-0.47448 1.79899,1.11714 2.39578,3.47553 2.39578,9.46756 0,4.68871 0.62877,7.97981 1.52455,7.97981 0.89746,0 1.52455,-3.328 1.52455,-8.09045 0,-7.32753 -0.35264,-8.30963 -3.74211,-10.41435 -4.27926,-2.65741 -7.45374,-2.88327 -13.40926,-0.954 l -4.19254,1.35815 v -4.67766 c 0,-2.5727 -0.6861,-4.67762 -1.524605,-4.67762 -0.946269,0 -1.524551,5.20717 -1.524551,13.72799 0,8.5208 0.578282,13.72794 1.524551,13.72794 0.888165,0 1.524605,-3.13294 1.524605,-7.50533 z m 104.71579,5.44681 c 4.80153,-2.80127 4.77249,-7.811 -0.0611,-10.48448 -3.39968,-1.88049 -3.46346,-2.12171 -1.20716,-4.56307 1.94287,-2.10225 2.04595,-3.03593 0.55891,-5.06261 -2.23888,-3.0515 -7.34852,-4.3405 -17.20565,-4.3405 h -7.52358 v 13.2546 13.25458 h 10.95483 c 9.14935,0 11.53645,-0.33922 14.48343,-2.05852 z m -22.38918,-5.51552 v -5.68054 h 8.04593 c 10.40788,0 14.8226,1.83897 14.8226,6.17428 0,4.06859 -3.10085,5.18681 -14.38313,5.18681 h -8.4854 z m 0,-12.30785 v -4.73377 h 7.38656 c 5.21981,0 8.12671,0.50786 9.90973,1.73136 5.89907,4.04791 1.23524,7.7362 -9.78232,7.7362 h -7.51397 z m 99.402,14.51283 c 0.25123,-2.95295 1.20175,-5.52131 2.11173,-5.70741 0.90988,-0.18608 4.55554,2.22995 8.10133,5.36906 3.54579,3.13909 7.08911,5.70741 7.87409,5.70741 2.30383,0 1.7456,-0.75774 -4.38902,-5.95764 -8.7096,-7.38264 -8.63331,-7.02771 -1.96392,-9.14062 3.32678,-1.05398 6.50696,-2.37678 7.0671,-2.93956 1.7411,-1.74948 -0.65504,-2.22327 -3.47019,-0.68622 -1.47251,0.804 -5.59308,2.3722 -9.15674,3.48488 l -6.47942,2.02305 v -7.11991 c 0,-4.11544 -0.64335,-7.11991 -1.52455,-7.11991 -0.94632,0 -1.5246,5.20717 -1.5246,13.72799 0,8.0401 0.60017,13.72794 1.44852,13.72794 0.79664,0 1.65422,-2.41607 1.90567,-5.36906 z m 139.95524,-0.7403 c 0,-7.01504 1.87812,-10.22308 6.97693,-11.9177 1.97509,-0.65639 3.20784,-1.57842 2.73956,-2.04896 -0.46846,-0.47051 -2.63948,-0.12809 -4.82487,0.76128 -2.73391,1.11238 -4.1563,1.27612 -4.55954,0.5248 -0.32269,-0.60055 -1.21507,-1.09195 -1.98368,-1.09195 -0.7686,0 -1.3975,4.47342 -1.3975,9.94095 0,5.99612 0.60497,9.94094 1.52455,9.94094 0.85884,0 1.52455,-2.66762 1.52455,-6.10936 z M 291.55474,220.50087 c 12.53642,-1.75215 35.40483,-8.03145 46.475,-12.76127 24.62598,-10.52173 45.31745,-28.71104 53.32292,-46.87491 3.95831,-8.98104 4.80804,-27.78838 1.69102,-37.42672 -9.86665,-30.509432 -45.56723,-55.042284 -93.1038,-63.97936 -12.5362,-2.356878 -15.89344,-2.580593 -38.87652,-2.590684 -23.40959,-0.01077 -26.05465,0.171757 -38.11419,2.620778 -45.92144,9.32625 -79.11158,30.867256 -90.97825,59.046526 -7.34621,17.44473 -4.6731,38.62776 6.86935,54.43617 12.96038,17.75037 36.2892,32.64798 65.34252,41.72734 8.43722,2.63666 26.81646,6.04813 39.34809,7.30365 10.96866,1.09889 34.73491,0.35568 48.02386,-1.50152 z m -64.54041,-38.73829 c -1.16253,-1.88132 3.14808,-4.01595 5.34934,-2.64897 2.10519,1.30732 0.52781,3.99988 -2.34295,3.99988 -1.19437,0 -2.54727,-0.60792 -3.00639,-1.35091 z m -17.78626,-36.04606 c 0,-18.77734 0.099,-19.40852 3.04914,-19.40852 2.93974,0 3.0491,0.63118 3.0491,17.59025 v 17.5902 l 4.95488,-0.78529 c 2.72515,-0.43189 11.64392,-0.72582 19.81937,-0.65311 8.17551,0.0726 18.29481,0.13207 22.4874,0.13207 4.19254,0 14.31187,-0.0594 22.48737,-0.13207 8.1755,-0.0726 17.09422,0.22114 19.81942,0.65311 l 4.95481,0.78529 v -17.5902 c 0,-16.95907 0.10955,-17.59025 3.04917,-17.59025 2.94998,0 3.04914,0.63118 3.04914,19.40852 v 19.40852 h -53.35991 -53.35989 z m 114.9418,15.07067 c 0.50881,-0.82365 0.92542,-1.70088 0.92542,-1.94939 0,-0.2487 0.68605,-0.18858 1.52455,0.13317 2.4292,0.93237 1.76413,3.31369 -0.92541,3.31369 -1.60769,0 -2.13183,-0.51486 -1.52456,-1.49759 z M 216.85092,141.55658 v -18.13569 l 3.91067,-0.92334 c 2.15082,-0.50784 4.55203,-0.92331 5.33597,-0.92331 0.83268,0 1.42533,7.28258 1.42533,17.515 v 17.51499 l 8.00397,0.11208 c 14.54897,0.20361 18.50213,1.54392 4.95486,1.67991 -6.70813,0.0673 -14.76925,0.38653 -17.91364,0.70928 l -5.71716,0.5868 z m 70.13012,16.99664 c -12.2192,-0.44618 -13.53003,-0.63823 -8.38513,-1.22851 3.35409,-0.3848 9.01401,-0.70434 12.57772,-0.71007 l 6.47942,-0.0111 v -17.51463 c 0,-10.23242 0.59258,-17.515 1.42528,-17.515 0.78394,0 3.18514,0.41548 5.33602,0.92331 l 3.91067,0.92334 v 18.01181 18.0118 l -3.43027,-0.18105 c -1.8867,-0.0998 -9.94783,-0.41923 -17.91371,-0.71008 z m -30.29385,-1.58991 c -1.98761,-0.86511 -6.44698,-2.09213 -9.90968,-2.72665 l -6.29579,-1.15372 -0.41256,-19.06802 c -0.40566,-18.73537 -0.35784,-19.068 2.7437,-19.068 4.21109,0 10.60015,2.13506 14.85417,4.96387 3.38619,2.25176 3.45476,2.71167 3.04917,20.46449 l -0.41487,18.16094 z m 7.42532,-16.72838 v -18.30644 l 4.19261,-2.42834 c 5.23774,-3.03372 9.92104,-4.55323 14.03354,-4.55323 3.13327,0 3.17477,0.2859 2.76825,19.068 l -0.41257,19.06802 -6.51971,1.19475 c -3.58583,0.65711 -8.21669,1.8853 -10.29085,2.72924 l -3.7711,1.53449 z m -26.29878,15.66963 -8.76631,-0.34172 v -19.36125 -19.36125 h 4.57372 4.57371 v 18.9351 18.93516 l 3.43031,0.0666 c 1.88665,0.0364 4.80235,0.43268 6.47942,0.88023 1.67702,0.4475 2.02004,0.76304 0.76227,0.70116 -1.25774,-0.0619 -6.2317,-0.26623 -11.05312,-0.45408 z m 39.25764,-0.16101 c 1.67702,-0.49478 4.59276,-0.92958 6.47941,-0.96618 l 3.43026,-0.0666 v -18.93509 -18.93514 h 4.5737 4.57371 v 19.40852 19.40852 l -7.24169,0.0143 c -3.98292,0.008 -8.95686,0.22901 -11.05312,0.4928 -3.32177,0.41823 -3.41967,0.36431 -0.76227,-0.41976 z m 49.08172,-13.94601 c -1.42278,-0.88355 0.29675,-2.23482 2.84358,-2.23482 1.20826,0 2.19686,0.63904 2.19686,1.42011 0,1.42606 -3.21832,1.94624 -5.04044,0.81471 z m -131.08297,-18.318 c -0.34458,-0.81825 0.17401,-1.95214 1.15249,-2.51973 2.38662,-1.38447 6.44565,0.5161 5.72706,2.68157 -0.65867,1.98488 -6.0287,1.85857 -6.87955,-0.16174 z m 127.39475,-11.49409 c 0.47709,-0.8478 0.098,-2.01941 -0.84277,-2.60361 -1.26412,-0.78496 -1.06727,-1.0621 0.75438,-1.0621 1.35554,0 2.81071,-0.53256 3.23366,-1.18345 0.61516,-0.94675 0.79304,-0.94675 0.88932,0 0.0663,0.65089 1.28664,1.18345 2.71213,1.18345 1.9155,0 2.14553,0.27696 0.88144,1.0621 -0.94073,0.5842 -1.29252,1.75581 -0.78176,2.60361 0.76701,1.27319 0.52782,1.33943 -1.37508,0.38051 -1.8191,-0.91671 -2.72807,-0.91671 -4.32126,0 -1.62256,0.93365 -1.84774,0.85915 -1.15006,-0.38051 z m -117.25528,-2.23926 c -0.5278,-0.85454 -0.22874,-2.00771 0.66445,-2.56256 2.32283,-1.44248 6.72396,-0.12416 6.1172,1.83244 -0.67583,2.17933 -5.5611,2.70531 -6.78165,0.73012 z m 23.81036,-8.06429 c -1.48923,-0.5716 -1.72565,-1.17297 -0.70928,-1.804145 1.98571,-1.233114 5.48322,0.109137 4.04637,1.553015 -0.70967,0.71301 -1.90014,0.80261 -3.33709,0.2512 z m 80.82961,-2.829719 c 0,-1.26235 1.01639,-1.893526 3.04917,-1.893526 2.03275,0 3.04914,0.631176 3.04914,1.893526 0,1.262319 -1.01639,1.893489 -3.04914,1.893489 -2.03278,0 -3.04917,-0.63117 -3.04917,-1.893489 z"
       id="path21"
       inkscape:connector-curvature="0" />
  </g>
</svg>
